HIERARCHY
ROOT Hips
{
	OFFSET -8.665500 -1.496397 44.816700
	CHANNELS 6 Xposition Yposition Zposition Zrotation Xrotation Yrotation
	JOINT Chest
	{
		OFFSET -0.698600 0.806100 5.350899
		CHANNELS 6 Xposition Yposition Zposition Zrotation Xrotation Yrotation
		JOINT Chest2
		{
			OFFSET 0.000000 0.000000 4.409100
			CHANNELS 6 Xposition Yposition Zposition Zrotation Xrotation Yrotation
			JOINT Neck
			{
				OFFSET 0.000000 0.000001 10.248299
				CHANNELS 6 Xposition Yposition Zposition Zrotation Xrotation Yrotation
				JOINT Head
				{
					OFFSET 0.000000 0.000000 2.173897
					CHANNELS 6 Xposition Yposition Zposition Zrotation Xrotation Yrotation
					End Site
					{
						OFFSET 0.000000 0.000001 9.966400
					}
				}
			}
			JOINT LeftCollar
			{
				OFFSET 2.100600 -0.520900 6.016098
				CHANNELS 6 Xposition Yposition Zposition Zrotation Xrotation Yrotation
				JOINT LeftShoulder
				{
					OFFSET 5.536700 0.000000 0.000000
					CHANNELS 6 Xposition Yposition Zposition Zrotation Xrotation Yrotation
					JOINT LeftElbow
					{
						OFFSET 0.000000 -0.000001 -12.362099
						CHANNELS 6 Xposition Yposition Zposition Zrotation Xrotation Yrotation
						JOINT LeftWrist
						{
							OFFSET 0.000000 -0.000001 -10.273201
							CHANNELS 6 Xposition Yposition Zposition Zrotation Xrotation Yrotation
							End Site
							{
								OFFSET 0.000000 -0.000000 -2.173901
							}
						}
					}
				}
			}
			JOINT RightCollar
			{
				OFFSET -2.899500 -1.655900 6.981701
				CHANNELS 6 Xposition Yposition Zposition Zrotation Xrotation Yrotation
				JOINT RightShoulder
				{
					OFFSET -4.387501 0.000000 0.000000
					CHANNELS 6 Xposition Yposition Zposition Zrotation Xrotation Yrotation
					JOINT RightElbow
					{
						OFFSET 0.000000 -0.000001 -10.858101
						CHANNELS 6 Xposition Yposition Zposition Zrotation Xrotation Yrotation
						JOINT RightWrist
						{
							OFFSET 0.000000 -0.000001 -12.079601
							CHANNELS 6 Xposition Yposition Zposition Zrotation Xrotation Yrotation
							End Site
							{
								OFFSET 0.000000 0.000000 -2.173901
							}
						}
					}
				}
			}
		}
	}
	JOINT LeftHip
	{
		OFFSET 2.190800 0.073900 -2.522499
		CHANNELS 6 Xposition Yposition Zposition Zrotation Xrotation Yrotation
		JOINT LeftKnee
		{
			OFFSET 0.000000 -0.000002 -20.305000
			CHANNELS 6 Xposition Yposition Zposition Zrotation Xrotation Yrotation
			JOINT LeftAnkle
			{
				OFFSET 0.000000 -0.000001 -16.771700
				CHANNELS 6 Xposition Yposition Zposition Zrotation Xrotation Yrotation
				End Site
				{
					OFFSET 0.000000 -8.738000 0.000001
				}
			}
		}
	}
	JOINT RightHip
	{
		OFFSET -2.029500 0.054300 -2.705200
		CHANNELS 6 Xposition Yposition Zposition Zrotation Xrotation Yrotation
		JOINT RightKnee
		{
			OFFSET 0.000000 -0.000002 -20.030399
			CHANNELS 6 Xposition Yposition Zposition Zrotation Xrotation Yrotation
			JOINT RightAnkle
			{
				OFFSET 0.000000 -0.000001 -17.032700
				CHANNELS 6 Xposition Yposition Zposition Zrotation Xrotation Yrotation
				End Site
				{
					OFFSET 0.000000 -8.823600 0.000001
				}
			}
		}
	}
}
MOTION
Frames: 6
Frame Time: 0.041667
-18.622398 2.951606 47.421597 -7.667359 -8.758217 -40.964162 -0.698602 0.806100 5.350896 -1.874284 16.100827 22.009011 -0.000002 0.000000 4.409101 -16.190055 -6.246909 -2.186266 0.000008 0.000001 10.248305 -29.821832 5.491290 31.420810 0.000000 -0.000002 2.173893 -0.479739 2.602866 -0.521071 2.100603 -0.520897 6.016103 15.620106 -11.373135 -5.722146 5.536687 0.000003 -0.000000 -39.342535 -42.160736 -124.831392 -0.000002 0.000008 -12.362093 19.922113 -0.318349 -1.572324 -0.000000 -0.000002 -10.273205 56.295912 4.221111 -27.510981 -2.899502 -1.655898 6.981698 -4.542922 0.347781 9.796962 -4.387499 -0.000002 0.000005 -39.788017 -124.466947 43.500368 0.000004 -0.000006 -10.858098 54.008266 -124.023285 16.783617 0.000004 0.000007 -12.079597 -52.747960 -23.229996 -57.710536 2.190803 0.073899 -2.522504 -20.856193 -163.812593 -67.083181 -0.000006 -0.000001 -20.305016 1.191176 -177.836788 -49.000747 0.000000 0.000006 -16.771702 83.242097 7.163855 54.992298 -2.029505 0.054302 -2.705207 157.338380 13.033532 -47.800894 -0.000004 -0.000001 -20.030401 93.788613 22.921615 5.784360 0.000001 -0.000001 -17.032700 91.953375 26.896810 -24.651092
-18.647400 2.918706 47.417702 -7.658744 -8.813312 -40.869554 -0.698601 0.806103 5.350898 -1.867494 16.079860 21.951709 -0.000000 -0.000000 4.409100 -16.242554 -6.250199 -2.196398 0.000003 0.000002 10.248300 -29.855324 5.500536 31.426202 -0.000003 -0.000001 2.173911 -0.502086 2.560019 -0.503966 2.100603 -0.520900 6.016104 15.632087 -11.175997 -5.325474 5.536690 0.000003 0.000007 -40.356986 -42.493735 -125.742389 -0.000001 -0.000005 -12.362100 19.055716 -0.144963 -1.583318 -0.000000 -0.000001 -10.273192 56.458880 4.143969 -27.466144 -2.899502 -1.655899 6.981703 -4.499265 0.687557 9.500060 -4.387500 0.000000 0.000005 -39.952792 -124.877414 43.421370 -0.000005 -0.000008 -10.858107 54.190960 -123.973698 16.827228 0.000001 0.000003 -12.079597 -52.879509 -22.975930 -57.729497 2.190802 0.073900 -2.522495 -20.924088 -163.779494 -67.020678 -0.000001 -0.000004 -20.305021 1.194740 -177.822951 -49.090028 0.000000 0.000004 -16.771706 83.160456 7.222065 55.013776 -2.029507 0.054303 -2.705203 157.024437 13.099372 -47.665746 -0.000000 -0.000002 -20.030396 94.184798 22.969136 5.657357 -0.000001 -0.000002 -17.032698 91.823977 27.025295 -24.631441
-18.674599 2.886506 47.410999 -7.636598 -8.748442 -40.714433 -0.698602 0.806100 5.350897 -1.760209 15.929470 21.822567 -0.000000 0.000001 4.409100 -16.416869 -6.229624 -2.214416 0.000007 0.000001 10.248297 -29.787357 5.515513 31.469263 0.000005 -0.000001 2.173897 -0.578230 2.512242 -0.515963 2.100601 -0.520899 6.016094 15.505078 -10.966693 -5.123883 5.536695 0.000002 -0.000002 -40.434962 -42.581708 -126.096152 0.000000 0.000001 -12.362096 18.352870 -0.225342 -1.555780 -0.000000 0.000002 -10.273205 56.980645 4.174295 -27.448953 -2.899498 -1.655898 6.981697 -4.334524 1.089570 9.357346 -4.387498 -0.000000 0.000001 -39.883725 -125.253170 43.623274 0.000003 -0.000004 -10.858098 54.884986 -124.045975 17.276219 -0.000001 0.000001 -12.079599 -52.440232 -23.033829 -57.542780 2.190807 0.073900 -2.522503 -20.903391 -163.968322 -66.867251 -0.000003 -0.000002 -20.305014 1.191722 -177.713217 -49.130599 -0.000000 0.000003 -16.771704 83.198329 7.226991 55.077122 -2.029503 0.054300 -2.705204 155.735881 14.083619 -47.148126 -0.000005 -0.000001 -20.030405 96.232632 22.995797 5.150317 0.000001 -0.000004 -17.032700 91.332641 27.293323 -24.402837
-18.701097 2.855304 47.409000 -7.769217 -8.718036 -40.633325 -0.698600 0.806102 5.350899 -1.601959 15.969322 21.723929 0.000003 0.000001 4.409099 -16.532683 -6.234127 -2.223092 0.000002 -0.000001 10.248298 -29.799729 5.481675 31.505740 -0.000001 -0.000002 2.173895 -0.557122 2.529903 -0.551274 2.100603 -0.520901 6.016095 14.404951 -10.424204 -5.416394 5.536689 0.000003 0.000006 -38.797213 -42.596396 -125.856508 0.000001 0.000011 -12.362089 18.260425 -0.521333 -1.524747 -0.000001 -0.000002 -10.273200 57.681023 4.245383 -27.873372 -2.899496 -1.655900 6.981702 -4.309538 1.116226 9.343021 -4.387505 0.000000 0.000005 -40.075322 -125.163640 43.480031 -0.000003 -0.000002 -10.858092 55.128608 -124.096928 17.531390 0.000003 0.000007 -12.079599 -52.219030 -23.116014 -57.430949 2.190800 0.073900 -2.522499 -20.818739 -163.937982 -66.846495 -0.000008 -0.000003 -20.305025 1.220188 -177.693915 -49.136856 0.000001 0.000004 -16.771700 83.214660 7.215726 55.147586 -2.029504 0.054302 -2.705202 154.196985 15.211519 -46.639475 -0.000003 0.000001 -20.030403 98.978525 23.051911 4.407282 -0.000003 -0.000002 -17.032701 90.476832 27.587124 -23.937685
-18.723698 2.828106 47.405796 -8.120867 -8.656421 -40.585401 -0.698600 0.806100 5.350903 -1.285596 16.179772 21.657254 -0.000000 -0.000000 4.409107 -16.605884 -6.228006 -2.222399 -0.000002 -0.000003 10.248297 -30.025443 5.361970 31.603022 0.000000 0.000002 2.173899 -0.327615 2.516541 -0.684751 2.100598 -0.520899 6.016101 14.411650 -10.403260 -5.430168 5.536692 0.000003 0.000004 -38.132355 -42.056214 -125.415934 -0.000000 -0.000000 -12.362092 19.634642 -0.633251 -1.543267 -0.000001 -0.000010 -10.273203 56.642346 4.282924 -28.079545 -2.899505 -1.655900 6.981696 -4.381187 0.812013 9.483745 -4.387502 0.000001 0.000010 -40.364635 -124.655638 43.206629 -0.000006 -0.000009 -10.858098 54.964301 -124.136967 17.575226 0.000001 -0.000007 -12.079591 -52.176180 -23.220340 -57.481212 2.190799 0.073898 -2.522495 -20.569359 -163.857836 -66.888835 -0.000008 -0.000000 -20.305014 1.223182 -177.672318 -49.176044 -0.000003 0.000004 -16.771709 83.284786 7.260787 55.084533 -2.029503 0.054300 -2.705201 153.890883 15.444878 -46.452513 -0.000002 -0.000000 -20.030399 100.251358 23.131081 4.097377 -0.000002 -0.000003 -17.032700 89.853891 27.725862 -23.581262
-18.745396 2.798405 47.402500 -8.311906 -8.767441 -40.500952 -0.698593 0.806099 5.350897 -1.197314 16.417762 21.572683 -0.000007 0.000000 4.409101 -16.676916 -6.242591 -2.221670 0.000002 -0.000003 10.248306 -30.048809 5.404528 31.603121 -0.000004 -0.000000 2.173899 -0.209592 2.550455 -0.743533 2.100599 -0.520901 6.016106 14.409636 -10.353068 -5.773268 5.536695 0.000003 0.000005 -37.762084 -42.254989 -125.028320 -0.000002 0.000001 -12.362089 19.629610 -0.627228 -1.541708 -0.000002 -0.000004 -10.273208 57.185568 4.431101 -27.839158 -2.899502 -1.655900 6.981706 -4.442467 0.585085 9.503845 -4.387502 -0.000001 -0.000002 -40.696009 -124.325139 42.870410 0.000001 -0.000003 -10.858097 54.590133 -124.150177 17.390831 -0.000003 0.000012 -12.079604 -52.236665 -23.283961 -57.445825 2.190809 0.073896 -2.522500 -20.579903 -163.727271 -66.940416 -0.000000 -0.000003 -20.305019 1.121958 -177.747723 -49.140660 -0.000002 0.000003 -16.771709 83.167143 7.217539 55.132126 -2.029498 0.054300 -2.705207 153.322898 15.663162 -46.265782 -0.000004 0.000003 -20.030401 101.485915 23.182890 3.792394 -0.000001 0.000001 -17.032700 89.367971 27.940441 -23.299317
